<?xml version="1.0" encoding="UTF-8"?>
<svg version="1.1" xmlns="http://www.w3.org/2000/svg" width="180" height="180">
    <path d="M0 0 C59.4 0 118.8 0 180 0 C180 59.4 180 118.8 180 180 C120.6 180 61.2 180 0 180 C0 120.6 0 61.2 0 0 Z " fill="#FDFDFD" transform="translate(0,0)"/>
    <path d="M0 0 C59.4 0 118.8 0 180 0 C180 59.4 180 118.8 180 180 C120.6 180 61.2 180 0 180 C0 120.6 0 61.2 0 0 Z M37 26 C36.31808594 26.51820312 35.63617188 27.03640625 34.93359375 27.5703125 C21.98681884 38.05948043 12.71784243 54.84275997 9 71 C8.69642578 72.08667969 8.69642578 72.08667969 8.38671875 73.1953125 C3.5486343 92.61347459 7.9827128 114.55942437 18.07421875 131.56640625 C29.91218001 150.83756536 47.27448483 164.90507184 69.31640625 170.90234375 C92.27131869 176.18465128 114.8484483 172.3183017 135.01953125 160.0078125 C154.51473008 146.87474277 166.22015776 128.53014843 172 106 C176.25876823 82.62871093 170.58034046 60.85022888 157.375 41.4375 C156.26676031 39.94573466 155.14319742 38.46514801 154 37 C153.53207031 36.37996094 153.06414062 35.75992188 152.58203125 35.12109375 C140.5980865 20.11598646 121.13365135 10.75768758 102.484375 7.359375 C78.0039872 4.83449195 56.4196512 10.75926109 37 26 Z " fill="#969696" transform="translate(0,0)"/>
    <path d="M0 0 C0.71929687 -0.00773438 1.43859375 -0.01546875 2.1796875 -0.0234375 C7.49647556 -0.00352444 7.49647556 -0.00352444 9.75 2.25 C9.9375 5.8125 9.9375 5.8125 9.75 9.25 C8.03556781 10.96443219 5.74554759 10.48052967 3.40234375 10.56640625 C1.78295898 10.62924805 1.78295898 10.62924805 0.13085938 10.69335938 C-1.00544922 10.73267578 -2.14175781 10.77199219 -3.3125 10.8125 C-5.02276367 10.87727539 -5.02276367 10.87727539 -6.76757812 10.94335938 C-9.59492195 11.04982839 -12.42235738 11.15184207 -15.25 11.25 C-14.04652627 14.38236146 -12.74534839 17.32245926 -11.0859375 20.23828125 C-10.68632813 20.94404297 -10.28671875 21.64980469 -9.875 22.37695312 C-9.25625 23.45879883 -9.25625 23.45879883 -8.625 24.5625 C-7.99464844 25.67334961 -7.99464844 25.67334961 -7.3515625 26.80664062 C-6.32051505 28.62269011 -5.28563954 30.43656533 -4.25 32.25 C-3.59 32.25 -2.93 32.25 -2.25 32.25 C-2.15912109 30.75146484 -2.15912109 30.75146484 -2.06640625 29.22265625 C-1.98261719 27.93230469 -1.89882812 26.64195312 -1.8125 25.3125 C-1.73128906 24.02472656 -1.65007812 22.73695313 -1.56640625 21.41015625 C-1.25 18.25 -1.25 18.25 -0.25 17.25 C1.24738124 17.1520943 2.74942892 17.12025136 4.25 17.125 C5.0646875 17.12242187 5.879375 17.11984375 6.71875 17.1171875 C8.75 17.25 8.75 17.25 9.75 18.25 C9.87667764 21.24018161 9.93520838 24.19694108 9.9375 27.1875 C9.94974609 28.02474609 9.96199219 28.86199219 9.97460938 29.72460938 C9.97654297 30.52576172 9.97847656 31.32691406 9.98046875 32.15234375 C9.98457764 32.88960693 9.98868652 33.62687012 9.99291992 34.38647461 C9.75 36.25 9.75 36.25 7.75 38.25 C-0.37981264 38.96624207 -9.02141153 39.39974523 -16.25 35.25 C-20.1933983 31.57304753 -23.79753155 27.39097286 -24.5859375 21.91796875 C-24.69399733 15.05616959 -23.71207473 10.90657331 -18.859375 5.78125 C-13.16670514 0.6278857 -7.31976182 -0.08043694 0 0 Z " fill="#0C0C0C" transform="translate(97.25,128.75)"/>
    <path d="M0 0 C1.84541074 3.38325303 2.52574879 6.33099419 2.78515625 10.203125 C2.95861297 13.10798423 2.95861297 13.10798423 3.62109375 16.359375 C4.25606439 21.68638534 4.48388472 25.67382825 1.5703125 30.24121094 C-0.3209567 32.61239984 -2.30681717 34.77926211 -4.4375 36.9375 C-5.12384521 37.64205322 -5.81019043 38.34660645 -6.51733398 39.07250977 C-9.98921972 42.29861968 -12.61773549 44.43065175 -17.46875 44.53515625 C-18.98413001 44.40552874 -20.49600879 44.22625273 -22 44 C-22.75998291 43.8980835 -23.51996582 43.79616699 -24.30297852 43.69116211 C-26.56965484 43.34798939 -28.81233374 42.93780623 -31.0625 42.5 C-31.83271484 42.35691406 -32.60292969 42.21382812 -33.39648438 42.06640625 C-35.26567368 41.71811011 -37.13304894 41.36010078 -39 41 C-38.10698344 39.93513145 -37.2104053 38.87324959 -36.3125 37.8125 C-35.81363281 37.22082031 -35.31476563 36.62914062 -34.80078125 36.01953125 C-34.20652344 35.35308594 -33.61226563 34.68664062 -33 34 C-31.93265625 32.65421875 -31.93265625 32.65421875 -30.84375 31.28125 C-26.91780917 28.1318689 -24.05568778 28.42225926 -19.1875 28.6875 C-18.39923828 28.71005859 -17.61097656 28.73261719 -16.79882812 28.75585938 C-14.86506071 28.81445839 -12.93227833 28.90413173 -11 29 C-11.12761719 27.82824219 -11.25523438 26.65648437 -11.38671875 25.44921875 C-12.38357037 12.14747996 -12.38357037 12.14747996 -8.55078125 7.35546875 C-5.92444567 4.60478915 -3.05817866 2.25391739 0 0 Z " fill="#76BF2D" transform="translate(110,42)"/>
    <path d="M0 0 C0.76521973 0.10143311 1.53043945 0.20286621 2.31884766 0.30737305 C4.72334103 0.6569174 7.10908095 1.06776545 9.5 1.5 C10.32242188 1.64308594 11.14484375 1.78617188 11.9921875 1.93359375 C13.99584627 2.28306912 15.99808298 2.64068156 18 3 C17.08755794 4.25308709 16.16982229 5.50232026 15.25 6.75 C14.48429687 7.79414062 14.48429687 7.79414062 13.703125 8.859375 C8.98103087 14.79448413 8.98103087 14.79448413 5.5456543 15.51416016 C4.1985437 15.52648682 4.1985437 15.52648682 2.82421875 15.5390625 C1.33438477 15.57386719 1.33438477 15.57386719 -0.18554688 15.609375 C-1.73338867 15.61710937 -1.73338867 15.61710937 -3.3125 15.625 C-13.97753127 15.68312127 -13.97753127 15.68312127 -24 19 C-22.48990813 13.73481302 -19.11452237 10.49365957 -15.375 6.6875 C-14.78332031 6.04232422 -14.19164063 5.39714844 -13.58203125 4.73242188 C-9.2940335 0.35644145 -6.17664854 -0.95829827 0 0 Z " fill="#B5DC06" transform="translate(91,36)"/>
    <path d="M0 0 C1.06733668 16.01005025 1.06733668 16.01005025 -1.3828125 20.578125 C-3.16044474 22.28649884 -4.95017341 23.63627239 -7 25 C-8.00121694 25.95660826 -8.98332137 26.93396731 -9.9375 27.9375 C-10.9584375 28.9584375 -10.9584375 28.9584375 -12 30 C-14.83686432 24.32627136 -14.10384702 16.21498151 -14.25 10 C-14.27578125 8.9275 -14.3015625 7.855 -14.328125 6.75 C-14 4 -14 4 -12.6640625 2.16796875 C-8.96507238 -0.42827079 -4.34856894 -0.03685228 0 0 Z " fill="#1C99FE" transform="translate(81,51)"/>
    <path d="M0 0 C0.78826172 0.02255859 1.57652344 0.04511719 2.38867188 0.06835938 C4.32243929 0.12695839 6.25522167 0.21663173 8.1875 0.3125 C7.93285902 2.4395011 7.65827058 4.56412215 7.375 6.6875 C7.22417969 7.87085937 7.07335937 9.05421875 6.91796875 10.2734375 C6.1875 13.3125 6.1875 13.3125 3.1875 15.3125 C-4.61497069 15.43284659 -12.27853764 14.26093854 -19.8125 12.3125 C-18.91948344 11.24763145 -18.0229053 10.18574959 -17.125 9.125 C-16.62613281 8.53332031 -16.12726563 7.94164063 -15.61328125 7.33203125 C-14.72189453 6.33236328 -14.72189453 6.33236328 -13.8125 5.3125 C-12.74515625 3.96671875 -12.74515625 3.96671875 -11.65625 2.59375 C-7.73030917 -0.5556311 -4.86818778 -0.26524074 0 0 Z " fill="#712FA9" transform="translate(90.8125,70.6875)"/>
    <path d="M0 0 C2.31 0.33 4.62 0.66 7 1 C7 1.66 7 2.32 7 3 C7.804375 2.2575 7.804375 2.2575 8.625 1.5 C11.59358445 -0.37489544 13.55312427 -0.23501425 17 0 C17 0.66 17 1.32 17 2 C15.02 2.33 13.04 2.66 11 3 C11 5.64 11 8.28 11 11 C12.65 11 14.3 11 16 11 C16 11.33 16 11.66 16 12 C10.375 12.25 10.375 12.25 7 10 C7 10.66 7 11.32 7 12 C4.36 12 1.72 12 -1 12 C-1.04254356 10.00045254 -1.04080783 7.99958364 -1 6 C0 5 0 5 3.0625 4.9375 C4.5165625 4.9684375 4.5165625 4.9684375 6 5 C5.67 4.34 5.34 3.68 5 3 C2.47266765 2.34444881 2.47266765 2.34444881 0 2 C0 1.34 0 0.68 0 0 Z " fill="#414141" transform="translate(104,100)"/>
    <path d="M0 0 C0.66 0 1.32 0 2 0 C2.02685412 2.31243792 2.04632841 4.6249627 2.0625 6.9375 C2.07410156 8.22527344 2.08570313 9.51304688 2.09765625 10.83984375 C2 14 2 14 1 15 C-1.9375 15.1875 -1.9375 15.1875 -5 15 C-7 13 -7 13 -7.265625 11.125 C-7.26046875 10.42375 -7.2553125 9.7225 -7.25 9 C-7.25515625 8.29875 -7.2603125 7.5975 -7.265625 6.875 C-7 5 -7 5 -5 3 C-2.375 2.875 -2.375 2.875 0 3 C0 2.01 0 1.02 0 0 Z " fill="#3D3D3D" transform="translate(57,97)"/>
    <path d="M0 0 C0.66 0 1.32 0 2 0 C3.25664978 2.90600261 4 4.79604584 4 8 C4.66 8 5.32 8 6 8 C6.2165625 6.576875 6.2165625 6.576875 6.4375 5.125 C7 2 7 2 8 0 C8.99 0.33 9.98 0.66 11 1 C12.5159375 0.7215625 12.5159375 0.7215625 14.0625 0.4375 C15.031875 0.293125 16.00125 0.14875 17 0 C19 2 19 2 19.1953125 4.3828125 C19.17210938 5.28773437 19.14890625 6.19265625 19.125 7.125 C19.10695313 8.03507812 19.08890625 8.94515625 19.0703125 9.8828125 C19.04710938 10.58148438 19.02390625 11.28015625 19 12 C18.34 12 17.68 12 17 12 C17 8.7 17 5.4 17 2 C15.68 2.33 14.36 2.66 13 3 C12.67 5.97 12.34 8.94 12 12 C11.34 12 10.68 12 10 12 C9.67 9.69 9.34 7.38 9 5 C7.68 8.63 6.36 12.26 5 16 C4.34 16 3.68 16 3 16 C2.87625 14.783125 2.7525 13.56625 2.625 12.3125 C2.21109801 8.91730393 1.35124158 6.15289702 0 3 C0 2.01 0 1.02 0 0 Z " fill="#454545" transform="translate(60,100)"/>
    <path d="M0 0 C2.875 -0.125 2.875 -0.125 6 0 C8 2 8 2 8.23046875 4.12890625 C8.20919922 5.33353516 8.20919922 5.33353516 8.1875 6.5625 C8.17783203 7.77099609 8.17783203 7.77099609 8.16796875 9.00390625 C8 11 8 11 7 12 C4.66702567 12.04092937 2.33294775 12.04241723 0 12 C-0.625 9.625 -0.625 9.625 -1 7 C1 5 1 5 3.625 4.875 C4.40875 4.91625 5.1925 4.9575 6 5 C5.67 4.34 5.34 3.68 5 3 C2.47266765 2.34444881 2.47266765 2.34444881 0 2 C0 1.34 0 0.68 0 0 Z " fill="#2D2D2D" transform="translate(81,100)"/>
    <path d="M0 0 C2.5 0.25 2.5 0.25 4.5 2.25 C4.625 4.875 4.625 4.875 4.5 7.25 C2.19 7.25 -0.12 7.25 -2.5 7.25 C-2.17 8.24 -1.84 9.23 -1.5 10.25 C0.15 10.58 1.8 10.91 3.5 11.25 C3.5 11.58 3.5 11.91 3.5 12.25 C1.19 12.25 -1.12 12.25 -3.5 12.25 C-4.61445498 10.02109005 -4.66480286 8.71944894 -4.6875 6.25 C-4.70167969 5.54875 -4.71585937 4.8475 -4.73046875 4.125 C-4.34202978 0.96481851 -3.03116737 0.30311674 0 0 Z " fill="#646464" transform="translate(125.5,99.75)"/>
    <path d="M0 0 C1.4540625 0.0309375 1.4540625 0.0309375 2.9375 0.0625 C3.2675 3.0325 3.5975 6.0025 3.9375 9.0625 C1.23984372 10.41132814 -0.21414334 9.86588265 -3.0625 9.0625 C-4.42873674 6.33002652 -4.190926 4.08051098 -4.0625 1.0625 C-3.0625 0.0625 -3.0625 0.0625 0 0 Z " fill="#ECECEC" transform="translate(118.0625,101.9375)"/>
    <path d="M0 0 C1.32 0 2.64 0 4 0 C4 2.97 4 5.94 4 9 C2.35 8.67 0.7 8.34 -1 8 C-1.04241723 5.66705225 -1.04092937 3.33297433 -1 1 C-0.67 0.67 -0.34 0.34 0 0 Z " fill="#F4F4F4" transform="translate(53,102)"/>
    <path d="M0 0 C0.66 0 1.32 0 2 0 C2 0.99 2 1.98 2 3 C2.99 3 3.98 3 5 3 C5 3.66 5 4.32 5 5 C4.01 5 3.02 5 2 5 C2.103125 6.27875 2.20625 7.5575 2.3125 8.875 C2.37050781 9.59429687 2.42851563 10.31359375 2.48828125 11.0546875 C2.87393036 13.39519216 2.87393036 13.39519216 6 15 C4.33388095 15.042721 2.66617115 15.04063832 1 15 C0 14 0 14 -0.09765625 10.83984375 C-0.08025391 8.90818359 -0.08025391 8.90818359 -0.0625 6.9375 C-0.05347656 5.64714844 -0.04445313 4.35679688 -0.03515625 3.02734375 C-0.02355469 2.02832031 -0.01195313 1.02929688 0 0 Z " fill="#464646" transform="translate(90,97)"/>
    <path d="M0 0 C0.99 0 1.98 0 3 0 C2.71926927 2.14729141 2.42511501 4.29283193 2.125 6.4375 C1.88136719 8.22994141 1.88136719 8.22994141 1.6328125 10.05859375 C1.31957031 11.51458984 1.31957031 11.51458984 1 13 C0.01 13.495 0.01 13.495 -1 14 C-0.67 9.38 -0.34 4.76 0 0 Z " fill="#5E3189" transform="translate(96,71)"/>
    <path d="M0 0 C0.78375 0.04125 1.5675 0.0825 2.375 0.125 C2.375 0.785 2.375 1.445 2.375 2.125 C1.055 2.455 -0.265 2.785 -1.625 3.125 C-2.285 5.435 -2.945 7.745 -3.625 10.125 C-3.955 10.125 -4.285 10.125 -4.625 10.125 C-4.8203125 4.0703125 -4.8203125 4.0703125 -4.625 2.125 C-2.625 0.125 -2.625 0.125 0 0 Z " fill="#505050" transform="translate(54.625,99.875)"/>
    <path d="M0 0 C2.875 -0.1875 2.875 -0.1875 6 0 C6.66 0.99 7.32 1.98 8 3 C7.67 3.99 7.34 4.98 7 6 C5.02 6 3.04 6 1 6 C1 5.67 1 5.34 1 5 C2.65 5 4.3 5 6 5 C5.67 4.34 5.34 3.68 5 3 C2.47266765 2.34444881 2.47266765 2.34444881 0 2 C0 1.34 0 0.68 0 0 Z " fill="#595959" transform="translate(81,100)"/>
    <path d="M0 0 C1.2065625 0.0309375 1.2065625 0.0309375 2.4375 0.0625 C2.4375 0.7225 2.4375 1.3825 2.4375 2.0625 C1.1175 2.3925 -0.2025 2.7225 -1.5625 3.0625 C-1.8925 6.0325 -2.2225 9.0025 -2.5625 12.0625 C-2.8925 12.0625 -3.2225 12.0625 -3.5625 12.0625 C-3.58937279 10.25007948 -3.60883715 8.43754767 -3.625 6.625 C-3.63660156 5.61566406 -3.64820312 4.60632813 -3.66015625 3.56640625 C-3.52706167 0.15386128 -3.42090834 0.08343679 0 0 Z " fill="#363636" transform="translate(100.5625,99.9375)"/>
    <path d="M0 0 C0 0.99 0 1.98 0 3 C-3.63 2.67 -7.26 2.34 -11 2 C-11 1.67 -11 1.34 -11 1 C-7.27569643 0.30710631 -3.78916254 -0.11144596 0 0 Z " fill="#2891CA" transform="translate(81,51)"/>
    <path d="M0 0 C1.65 0 3.3 0 5 0 C5 1.32 5 2.64 5 4 C3.35 4 1.7 4 0 4 C0 2.68 0 1.36 0 0 Z " fill="#E5E5E5" transform="translate(82,107)"/>
    <path d="M0 0 C1.65 0 3.3 0 5 0 C4.67 1.32 4.34 2.64 4 4 C2.68 4 1.36 4 0 4 C0 2.68 0 1.36 0 0 Z " fill="#ECECEC" transform="translate(105,107)"/>
</svg>
